<?xml version="1.0" encoding="UTF-8"?>
<svg xmlns="http://www.w3.org/2000/svg" xmlns:xlink="http://www.w3.org/1999/xlink" width="74px" height="75px" viewBox="0 0 74 74" version="1.1">
<g id="surface1">
<path style=" stroke:none;fill-rule:nonzero;fill:rgb(5.490196%,3.529412%,3.529412%);fill-opacity:1;" d="M 51.175781 30.191406 C 51.175781 29.402344 50.527344 28.765625 49.730469 28.765625 C 48.933594 28.765625 48.289062 29.402344 48.289062 30.191406 C 48.289062 30.976562 48.933594 31.613281 49.730469 31.613281 C 50.527344 31.613281 51.175781 30.976562 51.175781 30.191406 Z M 44.875 30.394531 C 44.078125 30.394531 43.421875 31.03125 43.421875 31.828125 C 43.421875 32.625 44.066406 33.261719 44.875 33.261719 C 45.679688 33.261719 46.324219 32.625 46.324219 31.828125 C 46.324219 31.03125 45.671875 30.394531 44.875 30.394531 Z M 45.492188 36.757812 C 45.492188 37.46875 46.078125 38.050781 46.800781 38.050781 C 47.519531 38.050781 48.109375 37.46875 48.109375 36.757812 C 48.109375 36.042969 47.519531 35.464844 46.800781 35.464844 C 46.078125 35.464844 45.492188 36.042969 45.492188 36.757812 Z M 46.773438 33.777344 C 46.773438 34.527344 47.386719 35.125 48.136719 35.125 C 48.898438 35.125 49.503906 34.519531 49.503906 33.777344 C 49.503906 33.027344 48.886719 32.429688 48.136719 32.429688 C 47.378906 32.429688 46.773438 33.027344 46.773438 33.777344 Z M 51.15625 19.503906 C 52.171875 19.503906 52.984375 18.6875 52.984375 17.695312 C 52.984375 16.691406 52.160156 15.886719 51.15625 15.886719 C 50.140625 15.886719 49.324219 16.703125 49.324219 17.695312 C 49.3125 18.6875 50.140625 19.503906 51.15625 19.503906 Z M 46.144531 29.261719 C 46.980469 29.261719 47.664062 28.589844 47.664062 27.765625 C 47.664062 26.941406 46.980469 26.265625 46.144531 26.265625 C 45.3125 26.265625 44.628906 26.941406 44.628906 27.765625 C 44.628906 28.589844 45.3125 29.261719 46.144531 29.261719 Z M 48.148438 24.449219 C 49.066406 24.449219 49.816406 23.707031 49.816406 22.800781 C 49.816406 21.890625 49.066406 21.152344 48.148438 21.152344 C 47.226562 21.152344 46.476562 21.890625 46.476562 22.800781 C 46.476562 23.71875 47.226562 24.449219 48.148438 24.449219 Z M 43.214844 21.84375 C 44.183594 21.84375 44.96875 21.066406 44.96875 20.109375 C 44.96875 19.15625 44.183594 18.378906 43.214844 18.378906 C 42.246094 18.378906 41.457031 19.15625 41.457031 20.109375 C 41.457031 21.074219 42.246094 21.84375 43.214844 21.84375 Z M 53.945312 32.945312 C 53.945312 32.15625 53.300781 31.519531 52.503906 31.519531 C 51.707031 31.519531 51.058594 32.15625 51.058594 32.945312 C 51.058594 33.730469 51.707031 34.367188 52.503906 34.367188 C 53.300781 34.367188 53.945312 33.730469 53.945312 32.945312 Z M 42.472656 35.183594 C 42.472656 35.933594 43.082031 36.53125 43.839844 36.53125 C 44.597656 36.53125 45.207031 35.921875 45.207031 35.183594 C 45.207031 34.441406 44.597656 33.832031 43.839844 33.832031 C 43.082031 33.832031 42.472656 34.441406 42.472656 35.183594 Z M 42 27.398438 C 42.882812 27.398438 43.601562 26.6875 43.601562 25.816406 C 43.601562 24.945312 42.882812 24.234375 42 24.234375 C 41.117188 24.234375 40.394531 24.945312 40.394531 25.816406 C 40.394531 26.6875 41.109375 27.398438 42 27.398438 Z M 36.886719 27.53125 C 35.964844 27.53125 35.207031 28.269531 35.207031 29.179688 C 35.207031 30.085938 35.957031 30.828125 36.886719 30.828125 C 37.816406 30.828125 38.554688 30.085938 38.554688 29.179688 C 38.554688 28.269531 37.816406 27.53125 36.886719 27.53125 Z M 50.585938 25.824219 C 50.585938 26.6875 51.296875 27.390625 52.171875 27.390625 C 53.042969 27.390625 53.753906 26.6875 53.753906 25.824219 C 53.753906 24.964844 53.042969 24.261719 52.171875 24.261719 C 51.289062 24.261719 50.585938 24.964844 50.585938 25.824219 Z M 28.90625 30.394531 C 28.109375 30.394531 27.457031 31.03125 27.457031 31.828125 C 27.457031 32.625 28.101562 33.261719 28.90625 33.261719 C 29.714844 33.261719 30.359375 32.625 30.359375 31.828125 C 30.359375 31.03125 29.703125 30.394531 28.90625 30.394531 Z M 28.566406 35.183594 C 28.566406 35.933594 29.171875 36.53125 29.933594 36.53125 C 30.691406 36.53125 31.296875 35.921875 31.296875 35.183594 C 31.296875 34.441406 30.691406 33.832031 29.933594 33.832031 C 29.171875 33.832031 28.566406 34.441406 28.566406 35.183594 Z M 25.664062 36.757812 C 25.664062 37.46875 26.25 38.050781 26.972656 38.050781 C 27.691406 38.050781 28.28125 37.46875 28.28125 36.757812 C 28.28125 36.042969 27.691406 35.464844 26.972656 35.464844 C 26.25 35.464844 25.664062 36.042969 25.664062 36.757812 Z M 36.886719 35.359375 C 36.0625 35.359375 35.386719 36.027344 35.386719 36.839844 C 35.386719 37.65625 36.0625 38.320312 36.886719 38.320312 C 37.710938 38.320312 38.386719 37.65625 38.386719 36.839844 C 38.386719 36.027344 37.710938 35.359375 36.886719 35.359375 Z M 55.261719 30.910156 C 56.136719 30.910156 56.847656 30.207031 56.847656 29.347656 C 56.847656 28.484375 56.136719 27.78125 55.261719 27.78125 C 54.390625 27.78125 53.679688 28.484375 53.679688 29.347656 C 53.679688 30.207031 54.378906 30.910156 55.261719 30.910156 Z M 59.210938 27.707031 C 60.128906 27.707031 60.878906 26.96875 60.878906 26.058594 C 60.878906 25.152344 60.128906 24.410156 59.210938 24.410156 C 58.289062 24.410156 57.539062 25.152344 57.539062 26.058594 C 57.539062 26.96875 58.289062 27.707031 59.210938 27.707031 Z M 52.085938 36.035156 C 52.085938 35.257812 51.449219 34.621094 50.652344 34.621094 C 49.863281 34.621094 49.21875 35.25 49.21875 36.035156 C 49.21875 36.449219 49.398438 36.8125 49.683594 37.066406 C 49.578125 37.039062 49.464844 37.027344 49.351562 37.027344 C 48.59375 37.027344 47.976562 37.636719 47.976562 38.386719 C 47.976562 38.734375 48.109375 39.050781 48.328125 39.296875 C 48.289062 39.296875 48.25 39.285156 48.214844 39.285156 C 47.503906 39.285156 46.921875 39.855469 46.921875 40.558594 C 46.921875 40.757812 46.972656 40.953125 47.054688 41.121094 C 46.675781 41.269531 46.382812 41.589844 46.269531 41.984375 C 46.269531 41.984375 46.269531 41.984375 46.257812 41.984375 C 46.308594 41.84375 46.335938 41.691406 46.335938 41.535156 C 46.335938 41.167969 46.191406 40.839844 45.957031 40.585938 C 46.535156 40.457031 46.972656 39.949219 46.972656 39.332031 C 46.972656 38.621094 46.382812 38.039062 45.660156 38.039062 C 44.941406 38.039062 44.351562 38.621094 44.351562 39.332031 C 44.351562 39.660156 44.476562 39.960938 44.683594 40.183594 C 44.164062 40.277344 43.746094 40.671875 43.601562 41.167969 C 43.601562 41.167969 43.601562 41.167969 43.59375 41.167969 C 43.632812 41.039062 43.660156 40.898438 43.660156 40.757812 C 43.660156 40.269531 43.402344 39.847656 43.023438 39.605469 C 43.746094 39.566406 44.324219 38.976562 44.324219 38.253906 C 44.324219 37.535156 43.71875 36.90625 42.957031 36.90625 C 42.199219 36.90625 41.589844 37.503906 41.589844 38.253906 C 41.589844 38.734375 41.839844 39.144531 42.207031 39.386719 C 41.640625 39.417969 41.164062 39.773438 40.976562 40.269531 C 40.976562 40.230469 40.984375 40.203125 40.984375 40.167969 C 40.984375 39.40625 40.359375 38.789062 39.589844 38.789062 C 38.964844 38.789062 38.433594 39.203125 38.261719 39.761719 C 38.214844 39.050781 37.605469 38.488281 36.875 38.488281 C 36.144531 38.488281 35.539062 39.050781 35.492188 39.761719 C 35.320312 39.203125 34.789062 38.789062 34.164062 38.789062 C 33.394531 38.789062 32.769531 39.40625 32.769531 40.167969 C 32.769531 40.203125 32.769531 40.230469 32.777344 40.269531 C 32.589844 39.773438 32.105469 39.417969 31.542969 39.386719 C 31.914062 39.144531 32.160156 38.734375 32.160156 38.253906 C 32.160156 37.503906 31.542969 36.90625 30.796875 36.90625 C 30.046875 36.90625 29.429688 37.503906 29.429688 38.253906 C 29.429688 38.996094 30.007812 39.566406 30.730469 39.605469 C 30.339844 39.847656 30.09375 40.277344 30.09375 40.757812 C 30.09375 40.898438 30.113281 41.039062 30.160156 41.167969 C 30.015625 40.664062 29.601562 40.277344 29.078125 40.183594 C 29.285156 39.960938 29.410156 39.660156 29.410156 39.332031 C 29.410156 38.621094 28.820312 38.039062 28.101562 38.039062 C 27.378906 38.039062 26.792969 38.621094 26.792969 39.332031 C 26.792969 39.949219 27.226562 40.457031 27.808594 40.585938 C 27.570312 40.832031 27.425781 41.167969 27.425781 41.535156 C 27.425781 41.691406 27.457031 41.84375 27.503906 41.984375 C 27.390625 41.589844 27.09375 41.269531 26.714844 41.121094 C 26.800781 40.953125 26.847656 40.765625 26.847656 40.558594 C 26.847656 39.855469 26.269531 39.285156 25.558594 39.285156 C 25.519531 39.285156 25.484375 39.285156 25.445312 39.296875 C 25.664062 39.050781 25.796875 38.734375 25.796875 38.386719 C 25.796875 37.636719 25.179688 37.027344 24.421875 37.027344 C 24.304688 37.027344 24.191406 37.046875 24.089844 37.066406 C 24.371094 36.804688 24.542969 36.4375 24.542969 36.035156 C 24.542969 35.257812 23.898438 34.621094 23.109375 34.621094 C 22.324219 34.621094 21.679688 35.25 21.679688 36.035156 C 21.679688 36.820312 22.3125 37.449219 23.109375 37.449219 C 23.234375 37.449219 23.359375 37.429688 23.472656 37.402344 C 23.207031 37.644531 23.035156 38.003906 23.035156 38.386719 C 23.035156 39.136719 23.652344 39.746094 24.410156 39.746094 C 24.46875 39.746094 24.515625 39.746094 24.570312 39.734375 C 24.382812 39.960938 24.269531 40.242188 24.269531 40.558594 C 24.269531 41.074219 24.570312 41.515625 25.019531 41.710938 C 24.914062 41.898438 24.847656 42.125 24.847656 42.359375 C 24.847656 42.808594 25.074219 43.210938 25.425781 43.453125 C 25.367188 43.605469 25.339844 43.753906 25.339844 43.921875 C 25.339844 44.304688 25.5 44.652344 25.757812 44.90625 C 25.671875 45.082031 25.625 45.28125 25.625 45.488281 C 25.625 46.246094 26.25 46.863281 27.019531 46.863281 C 27.789062 46.863281 28.414062 46.246094 28.414062 45.488281 L 28.414062 45.476562 C 28.671875 45.8125 29.070312 46.03125 29.523438 46.03125 C 30.253906 46.03125 30.863281 45.46875 30.910156 44.757812 C 31.15625 45.140625 31.59375 45.402344 32.085938 45.402344 C 32.644531 45.402344 33.128906 45.074219 33.355469 44.597656 C 33.605469 44.953125 34.019531 45.1875 34.496094 45.1875 C 35.015625 45.1875 35.472656 44.894531 35.710938 44.476562 C 35.957031 44.859375 36.382812 45.113281 36.875 45.113281 C 37.371094 45.113281 37.796875 44.859375 38.042969 44.476562 C 38.28125 44.894531 38.734375 45.1875 39.257812 45.1875 C 39.730469 45.1875 40.148438 44.953125 40.394531 44.597656 C 40.613281 45.074219 41.097656 45.402344 41.660156 45.402344 C 42.152344 45.402344 42.589844 45.148438 42.835938 44.765625 C 42.882812 45.476562 43.488281 46.039062 44.21875 46.039062 C 44.675781 46.039062 45.074219 45.824219 45.328125 45.488281 L 45.328125 45.496094 C 45.328125 46.253906 45.957031 46.871094 46.722656 46.871094 C 47.492188 46.871094 48.117188 46.253906 48.117188 45.496094 C 48.117188 45.289062 48.070312 45.09375 47.984375 44.914062 C 48.242188 44.664062 48.402344 44.316406 48.402344 43.933594 C 48.402344 43.761719 48.375 43.613281 48.316406 43.464844 C 48.667969 43.21875 48.898438 42.828125 48.898438 42.367188 C 48.898438 42.132812 48.839844 41.917969 48.726562 41.722656 C 49.171875 41.515625 49.476562 41.085938 49.476562 40.570312 C 49.476562 40.25 49.363281 39.96875 49.164062 39.746094 C 49.21875 39.753906 49.265625 39.753906 49.324219 39.753906 C 50.082031 39.753906 50.699219 39.144531 50.699219 38.394531 C 50.699219 38.003906 50.527344 37.65625 50.261719 37.402344 C 50.375 37.429688 50.5 37.449219 50.625 37.449219 C 51.449219 37.441406 52.085938 36.8125 52.085938 36.035156 Z M 25.632812 32.417969 C 24.875 32.417969 24.269531 33.027344 24.269531 33.769531 C 24.269531 34.519531 24.886719 35.117188 25.632812 35.117188 C 26.394531 35.117188 27 34.507812 27 33.769531 C 27 33.027344 26.394531 32.417969 25.632812 32.417969 Z M 36.886719 31.625 C 36.011719 31.625 35.300781 32.324219 35.300781 33.1875 C 35.300781 34.050781 36.011719 34.75 36.886719 34.75 C 37.757812 34.75 38.46875 34.050781 38.46875 33.1875 C 38.46875 32.324219 37.769531 31.625 36.886719 31.625 Z M 36.886719 26.226562 C 37.855469 26.226562 38.640625 25.449219 38.640625 24.496094 C 38.640625 23.539062 37.855469 22.761719 36.886719 22.761719 C 35.917969 22.761719 35.132812 23.539062 35.132812 24.496094 C 35.132812 25.449219 35.917969 26.226562 36.886719 26.226562 Z M 38.820312 18.519531 C 38.820312 17.46875 37.957031 16.609375 36.886719 16.609375 C 35.824219 16.609375 34.949219 17.460938 34.949219 18.519531 C 34.949219 19.566406 35.8125 20.429688 36.886719 20.429688 C 37.949219 20.429688 38.820312 19.578125 38.820312 18.519531 Z M 21.269531 31.519531 C 20.472656 31.519531 19.828125 32.15625 19.828125 32.945312 C 19.828125 33.730469 20.472656 34.367188 21.269531 34.367188 C 22.066406 34.367188 22.710938 33.730469 22.710938 32.945312 C 22.722656 32.15625 22.078125 31.519531 21.269531 31.519531 Z M 24.039062 28.765625 C 23.242188 28.765625 22.597656 29.402344 22.597656 30.191406 C 22.597656 30.976562 23.242188 31.613281 24.039062 31.613281 C 24.835938 31.613281 25.484375 30.976562 25.484375 30.191406 C 25.484375 29.402344 24.835938 28.765625 24.039062 28.765625 Z M 30.566406 21.84375 C 31.535156 21.84375 32.324219 21.066406 32.324219 20.109375 C 32.324219 19.15625 31.535156 18.378906 30.566406 18.378906 C 29.601562 18.378906 28.8125 19.15625 28.8125 20.109375 C 28.8125 21.066406 29.589844 21.84375 30.566406 21.84375 Z M 28.453125 64.222656 L 25.09375 59.585938 C 26.515625 59.085938 27.683594 57.972656 27.683594 55.988281 C 27.683594 53.09375 25.234375 52.0625 23.074219 52.0625 L 16.375 52.0625 L 16.375 64.222656 L 19.070312 64.222656 L 19.070312 59.910156 L 22.144531 59.910156 L 25.265625 64.222656 Z M 22.710938 57.46875 C 21.648438 57.46875 19.058594 57.46875 19.058594 57.46875 L 19.058594 54.496094 C 19.058594 54.496094 21.648438 54.496094 22.710938 54.496094 C 23.773438 54.496094 24.828125 54.742188 24.828125 55.976562 C 24.828125 57.222656 23.773438 57.46875 22.710938 57.46875 Z M 14.5625 24.402344 C 13.640625 24.402344 12.894531 25.140625 12.894531 26.050781 C 12.894531 26.957031 13.640625 27.699219 14.5625 27.699219 C 15.484375 27.699219 16.234375 26.957031 16.234375 26.050781 C 16.234375 25.140625 15.492188 24.402344 14.5625 24.402344 Z M 7.210938 54.308594 C 9.609375 54.308594 10.804688 55.679688 11.203125 56.644531 L 13.613281 55.226562 C 12.644531 53.390625 10.484375 51.808594 7.210938 51.808594 C 3.214844 51.808594 0.191406 54.601562 0.191406 58.132812 C 0.191406 61.664062 3.214844 64.453125 7.210938 64.453125 C 10.492188 64.453125 12.65625 62.882812 13.613281 61.035156 L 11.203125 59.621094 C 10.804688 60.585938 9.609375 61.953125 7.210938 61.953125 C 4.980469 61.953125 3.121094 60.457031 3.121094 58.121094 C 3.121094 55.808594 4.980469 54.308594 7.210938 54.308594 Z M 56.476562 59.367188 L 54.53125 52.230469 L 51.773438 52.230469 L 49.796875 59.460938 L 47.976562 52.0625 L 45.167969 52.0625 L 48.308594 64.222656 L 50.917969 64.222656 L 53.128906 56.15625 L 55.328125 64.222656 L 57.929688 64.222656 L 61.070312 52.0625 L 58.269531 52.0625 Z M 70.925781 52.0625 L 70.925781 59.210938 L 65.738281 52.0625 L 63.109375 52.0625 L 63.109375 64.222656 L 65.773438 64.222656 L 65.773438 56.765625 L 71.203125 64.222656 L 73.601562 64.222656 L 73.601562 52.0625 Z M 18.519531 30.910156 C 19.390625 30.910156 20.101562 30.207031 20.101562 29.347656 C 20.101562 28.484375 19.390625 27.78125 18.519531 27.78125 C 17.644531 27.78125 16.933594 28.484375 16.933594 29.347656 C 16.933594 30.207031 17.636719 30.910156 18.519531 30.910156 Z M 40.585938 35.359375 C 41.382812 35.359375 42.027344 34.722656 42.027344 33.9375 C 42.027344 33.148438 41.382812 32.511719 40.585938 32.511719 C 39.789062 32.511719 39.144531 33.148438 39.144531 33.9375 C 39.144531 34.722656 39.789062 35.359375 40.585938 35.359375 Z M 36.886719 13.246094 C 38.054688 13.246094 38.992188 12.308594 38.992188 11.164062 C 38.992188 10.011719 38.054688 9.085938 36.886719 9.085938 C 35.71875 9.085938 34.78125 10.023438 34.78125 11.164062 C 34.78125 12.316406 35.71875 13.246094 36.886719 13.246094 Z M 32.246094 37.28125 C 32.246094 38.058594 32.890625 38.695312 33.679688 38.695312 C 34.46875 38.695312 35.113281 38.058594 35.113281 37.28125 C 35.113281 36.503906 34.46875 35.867188 33.679688 35.867188 C 32.890625 35.867188 32.246094 36.503906 32.246094 37.28125 Z M 40.101562 38.703125 C 40.890625 38.703125 41.535156 38.066406 41.535156 37.289062 C 41.535156 36.511719 40.890625 35.875 40.101562 35.875 C 39.316406 35.875 38.667969 36.511719 38.667969 37.289062 C 38.667969 38.066406 39.304688 38.703125 40.101562 38.703125 Z M 31.753906 33.9375 C 31.753906 34.722656 32.398438 35.359375 33.195312 35.359375 C 33.992188 35.359375 34.636719 34.722656 34.636719 33.9375 C 34.636719 33.148438 33.992188 32.511719 33.195312 32.511719 C 32.398438 32.511719 31.753906 33.148438 31.753906 33.9375 Z M 41.183594 31.71875 C 42.019531 31.71875 42.703125 31.042969 42.703125 30.21875 C 42.703125 29.394531 42.027344 28.71875 41.183594 28.71875 C 40.347656 28.71875 39.664062 29.394531 39.664062 30.21875 C 39.675781 31.042969 40.347656 31.71875 41.183594 31.71875 Z M 22.625 19.503906 C 23.640625 19.503906 24.457031 18.6875 24.457031 17.695312 C 24.457031 16.691406 23.632812 15.886719 22.625 15.886719 C 21.613281 15.886719 20.796875 16.703125 20.796875 17.695312 C 20.785156 18.6875 21.613281 19.503906 22.625 19.503906 Z M 26.117188 27.773438 C 26.117188 28.597656 26.800781 29.273438 27.636719 29.273438 C 28.472656 29.273438 29.152344 28.605469 29.152344 27.773438 C 29.152344 26.949219 28.472656 26.273438 27.636719 26.273438 C 26.800781 26.273438 26.117188 26.941406 26.117188 27.773438 Z M 23.957031 22.800781 C 23.957031 23.707031 24.703125 24.449219 25.625 24.449219 C 26.546875 24.449219 27.292969 23.707031 27.292969 22.800781 C 27.292969 21.890625 26.546875 21.152344 25.625 21.152344 C 24.703125 21.152344 23.957031 21.890625 23.957031 22.800781 Z M 21.601562 27.390625 C 22.476562 27.390625 23.1875 26.6875 23.1875 25.824219 C 23.1875 24.964844 22.476562 24.261719 21.601562 24.261719 C 20.730469 24.261719 20.019531 24.964844 20.019531 25.824219 C 20.019531 26.6875 20.730469 27.390625 21.601562 27.390625 Z M 30.179688 25.816406 C 30.179688 26.6875 30.898438 27.398438 31.78125 27.398438 C 32.664062 27.398438 33.386719 26.6875 33.386719 25.816406 C 33.386719 24.945312 32.664062 24.234375 31.78125 24.234375 C 30.890625 24.234375 30.179688 24.933594 30.179688 25.816406 Z M 31.070312 30.21875 C 31.070312 31.042969 31.742188 31.71875 32.589844 31.71875 C 33.421875 31.71875 34.105469 31.050781 34.105469 30.21875 C 34.105469 29.394531 33.421875 28.71875 32.589844 28.71875 C 31.753906 28.71875 31.070312 29.394531 31.070312 30.21875 Z M 43.933594 58.140625 C 43.933594 54.609375 40.890625 51.820312 36.894531 51.820312 C 32.902344 51.820312 29.855469 54.609375 29.855469 58.140625 C 29.855469 61.671875 32.902344 64.464844 36.894531 64.464844 C 40.890625 64.464844 43.933594 61.671875 43.933594 58.140625 Z M 36.894531 61.972656 C 34.667969 61.972656 32.789062 60.492188 32.789062 58.160156 C 32.789062 55.828125 34.667969 54.320312 36.894531 54.320312 C 39.125 54.320312 41.003906 55.828125 41.003906 58.160156 C 41.003906 60.492188 39.125 61.972656 36.894531 61.972656 Z M 36.894531 61.972656 "/>
</g>
</svg>
