<?xml version="1.0" encoding="UTF-8"?>
<svg xmlns="http://www.w3.org/2000/svg" xmlns:xlink="http://www.w3.org/1999/xlink" width="89px" height="75px" viewBox="0 0 88 75" version="1.1">
<g id="surface1">
<path style=" stroke:none;fill-rule:nonzero;fill:rgb(98.823529%,97.254902%,91.764706%);fill-opacity:1;" d="M 60.957031 28.648438 C 60.957031 27.691406 60.191406 26.921875 59.242188 26.921875 C 58.292969 26.921875 57.527344 27.691406 57.527344 28.648438 C 57.527344 29.601562 58.292969 30.375 59.242188 30.375 C 60.191406 30.375 60.957031 29.601562 60.957031 28.648438 Z M 53.464844 28.898438 C 52.519531 28.898438 51.738281 29.671875 51.738281 30.636719 C 51.738281 31.601562 52.507812 32.375 53.464844 32.375 C 54.425781 32.375 55.191406 31.601562 55.191406 30.636719 C 55.191406 29.671875 54.425781 28.898438 53.464844 28.898438 Z M 54.210938 36.601562 C 54.210938 37.464844 54.910156 38.171875 55.765625 38.171875 C 56.625 38.171875 57.324219 37.464844 57.324219 36.601562 C 57.324219 35.738281 56.625 35.035156 55.765625 35.035156 C 54.898438 35.035156 54.210938 35.738281 54.210938 36.601562 Z M 55.722656 32.988281 C 55.722656 33.898438 56.457031 34.625 57.347656 34.625 C 58.25 34.625 58.972656 33.886719 58.972656 32.988281 C 58.972656 32.078125 58.238281 31.351562 57.347656 31.351562 C 56.445312 31.351562 55.722656 32.089844 55.722656 32.988281 Z M 60.933594 15.671875 C 62.140625 15.671875 63.113281 14.683594 63.113281 13.476562 C 63.113281 12.273438 62.128906 11.285156 60.933594 11.285156 C 59.726562 11.285156 58.757812 12.273438 58.757812 13.476562 C 58.757812 14.683594 59.726562 15.671875 60.933594 15.671875 Z M 54.976562 27.523438 C 55.96875 27.523438 56.78125 26.703125 56.78125 25.703125 C 56.78125 24.703125 55.96875 23.886719 54.976562 23.886719 C 53.984375 23.886719 53.171875 24.703125 53.171875 25.703125 C 53.171875 26.703125 53.984375 27.523438 54.976562 27.523438 Z M 57.371094 21.683594 C 58.464844 21.683594 59.355469 20.785156 59.355469 19.683594 C 59.355469 18.578125 58.464844 17.683594 57.371094 17.683594 C 56.273438 17.683594 55.382812 18.578125 55.382812 19.683594 C 55.382812 20.785156 56.273438 21.683594 57.371094 21.683594 Z M 51.492188 18.523438 C 52.640625 18.523438 53.578125 17.578125 53.578125 16.421875 C 53.578125 15.261719 52.640625 14.316406 51.492188 14.316406 C 50.339844 14.316406 49.402344 15.261719 49.402344 16.421875 C 49.402344 17.578125 50.339844 18.523438 51.492188 18.523438 Z M 64.261719 31.988281 C 64.261719 31.035156 63.496094 30.261719 62.546875 30.261719 C 61.601562 30.261719 60.832031 31.035156 60.832031 31.988281 C 60.832031 32.941406 61.601562 33.714844 62.546875 33.714844 C 63.496094 33.714844 64.261719 32.941406 64.261719 31.988281 Z M 50.621094 34.703125 C 50.621094 35.613281 51.34375 36.339844 52.246094 36.339844 C 53.136719 36.339844 53.871094 35.601562 53.871094 34.703125 C 53.871094 33.808594 53.148438 33.066406 52.246094 33.066406 C 51.34375 33.066406 50.621094 33.796875 50.621094 34.703125 Z M 50.046875 25.25 C 51.097656 25.25 51.953125 24.386719 51.953125 23.328125 C 51.953125 22.273438 51.097656 21.410156 50.046875 21.410156 C 48.996094 21.410156 48.140625 22.273438 48.140625 23.328125 C 48.140625 24.386719 48.996094 25.25 50.046875 25.25 Z M 43.964844 25.421875 C 42.859375 25.421875 41.96875 26.316406 41.96875 27.421875 C 41.96875 28.523438 42.871094 29.433594 43.964844 29.433594 C 45.058594 29.433594 45.953125 28.535156 45.953125 27.433594 C 45.953125 26.328125 45.070312 25.421875 43.964844 25.421875 Z M 60.257812 23.339844 C 60.257812 24.386719 61.105469 25.238281 62.140625 25.238281 C 63.179688 25.238281 64.027344 24.386719 64.027344 23.339844 C 64.027344 22.296875 63.179688 21.441406 62.140625 21.441406 C 61.105469 21.441406 60.257812 22.296875 60.257812 23.339844 Z M 34.476562 28.886719 C 33.53125 28.886719 32.75 29.660156 32.75 30.625 C 32.75 31.589844 33.519531 32.363281 34.476562 32.363281 C 35.4375 32.363281 36.203125 31.589844 36.203125 30.625 C 36.203125 29.660156 35.425781 28.886719 34.476562 28.886719 Z M 34.070312 34.691406 C 34.070312 35.601562 34.792969 36.328125 35.695312 36.328125 C 36.597656 36.328125 37.320312 35.589844 37.320312 34.691406 C 37.320312 33.796875 36.597656 33.058594 35.695312 33.058594 C 34.792969 33.058594 34.070312 33.796875 34.070312 34.691406 Z M 30.621094 36.601562 C 30.621094 37.464844 31.320312 38.171875 32.175781 38.171875 C 33.035156 38.171875 33.734375 37.464844 33.734375 36.601562 C 33.734375 35.738281 33.035156 35.035156 32.175781 35.035156 C 31.320312 35.035156 30.621094 35.738281 30.621094 36.601562 Z M 43.964844 34.921875 C 42.984375 34.921875 42.183594 35.726562 42.183594 36.714844 C 42.183594 37.703125 42.984375 38.511719 43.964844 38.511719 C 44.949219 38.511719 45.75 37.703125 45.75 36.714844 C 45.761719 35.726562 44.957031 34.921875 43.964844 34.921875 Z M 65.820312 29.511719 C 66.859375 29.511719 67.703125 28.660156 67.703125 27.613281 C 67.703125 26.566406 66.859375 25.714844 65.820312 25.714844 C 64.78125 25.714844 63.933594 26.566406 63.933594 27.613281 C 63.933594 28.671875 64.78125 29.511719 65.820312 29.511719 Z M 70.511719 25.625 C 71.605469 25.625 72.5 24.726562 72.5 23.625 C 72.5 22.523438 71.605469 21.625 70.511719 21.625 C 69.417969 21.625 68.527344 22.523438 68.527344 23.625 C 68.527344 24.726562 69.417969 25.625 70.511719 25.625 Z M 62.039062 35.726562 C 62.039062 34.785156 61.273438 34.011719 60.335938 34.011719 C 59.398438 34.011719 58.632812 34.773438 58.632812 35.726562 C 58.632812 36.226562 58.847656 36.671875 59.1875 36.976562 C 59.0625 36.941406 58.925781 36.933594 58.789062 36.933594 C 57.886719 36.933594 57.15625 37.671875 57.15625 38.578125 C 57.15625 39 57.3125 39.386719 57.574219 39.683594 C 57.527344 39.683594 57.480469 39.671875 57.4375 39.671875 C 56.589844 39.671875 55.902344 40.363281 55.902344 41.214844 C 55.902344 41.453125 55.957031 41.691406 56.058594 41.898438 C 55.609375 42.078125 55.257812 42.464844 55.125 42.941406 C 55.125 42.941406 55.125 42.941406 55.113281 42.941406 C 55.167969 42.773438 55.203125 42.589844 55.203125 42.398438 C 55.203125 41.953125 55.035156 41.558594 54.75 41.25 C 55.441406 41.089844 55.957031 40.476562 55.957031 39.726562 C 55.957031 38.863281 55.257812 38.160156 54.402344 38.160156 C 53.542969 38.160156 52.84375 38.863281 52.84375 39.726562 C 52.84375 40.125 52.992188 40.488281 53.238281 40.761719 C 52.621094 40.875 52.125 41.351562 51.953125 41.953125 C 51.953125 41.953125 51.953125 41.953125 51.941406 41.953125 C 51.988281 41.796875 52.023438 41.625 52.023438 41.453125 C 52.023438 40.863281 51.71875 40.351562 51.265625 40.058594 C 52.125 40.011719 52.8125 39.296875 52.8125 38.421875 C 52.8125 37.546875 52.089844 36.785156 51.1875 36.785156 C 50.285156 36.785156 49.5625 37.511719 49.5625 38.421875 C 49.5625 39 49.855469 39.5 50.296875 39.796875 C 49.617188 39.816406 49.054688 40.261719 48.828125 40.863281 C 48.828125 40.816406 48.839844 40.785156 48.839844 40.738281 C 48.839844 39.816406 48.09375 39.066406 47.179688 39.066406 C 46.4375 39.066406 45.804688 39.566406 45.601562 40.25 C 45.546875 39.386719 44.824219 38.703125 43.953125 38.703125 C 43.074219 38.703125 42.363281 39.386719 42.308594 40.25 C 42.105469 39.566406 41.472656 39.066406 40.726562 39.066406 C 39.8125 39.066406 39.070312 39.816406 39.070312 40.738281 C 39.070312 40.785156 39.070312 40.816406 39.082031 40.863281 C 38.855469 40.261719 38.28125 39.828125 37.613281 39.796875 C 38.054688 39.5 38.347656 39 38.347656 38.421875 C 38.347656 37.511719 37.613281 36.785156 36.722656 36.785156 C 35.832031 36.785156 35.097656 37.511719 35.097656 38.421875 C 35.097656 39.328125 35.785156 40.011719 36.644531 40.058594 C 36.179688 40.351562 35.886719 40.875 35.886719 41.453125 C 35.886719 41.625 35.910156 41.796875 35.96875 41.953125 C 35.796875 41.339844 35.300781 40.875 34.679688 40.761719 C 34.929688 40.488281 35.074219 40.125 35.074219 39.726562 C 35.074219 38.863281 34.375 38.160156 33.519531 38.160156 C 32.660156 38.160156 31.960938 38.863281 31.960938 39.726562 C 31.960938 40.476562 32.480469 41.089844 33.167969 41.25 C 32.886719 41.546875 32.71875 41.953125 32.71875 42.398438 C 32.71875 42.589844 32.75 42.773438 32.808594 42.941406 C 32.671875 42.464844 32.324219 42.078125 31.871094 41.898438 C 31.972656 41.691406 32.03125 41.464844 32.03125 41.214844 C 32.03125 40.363281 31.339844 39.671875 30.496094 39.671875 C 30.449219 39.671875 30.40625 39.671875 30.359375 39.683594 C 30.621094 39.386719 30.777344 39 30.777344 38.578125 C 30.777344 37.671875 30.042969 36.933594 29.140625 36.933594 C 29.007812 36.933594 28.871094 36.953125 28.746094 36.976562 C 29.085938 36.671875 29.289062 36.214844 29.289062 35.726562 C 29.289062 34.785156 28.53125 34.011719 27.585938 34.011719 C 26.648438 34.011719 25.882812 34.773438 25.882812 35.726562 C 25.882812 36.683594 26.636719 37.441406 27.585938 37.441406 C 27.730469 37.441406 27.878906 37.421875 28.011719 37.386719 C 27.699219 37.683594 27.496094 38.113281 27.496094 38.589844 C 27.496094 39.5 28.226562 40.238281 29.128906 40.238281 C 29.199219 40.238281 29.253906 40.238281 29.320312 40.226562 C 29.097656 40.5 28.949219 40.839844 28.949219 41.226562 C 28.949219 41.851562 29.320312 42.386719 29.839844 42.625 C 29.71875 42.851562 29.636719 43.125 29.636719 43.410156 C 29.636719 43.953125 29.910156 44.441406 30.324219 44.738281 C 30.257812 44.921875 30.226562 45.101562 30.226562 45.308594 C 30.226562 45.773438 30.417969 46.191406 30.722656 46.5 C 30.621094 46.714844 30.5625 46.953125 30.5625 47.203125 C 30.5625 48.125 31.308594 48.875 32.222656 48.875 C 33.136719 48.875 33.878906 48.125 33.878906 47.203125 L 33.878906 47.191406 C 34.183594 47.601562 34.660156 47.863281 35.199219 47.863281 C 36.070312 47.863281 36.789062 47.183594 36.847656 46.316406 C 37.140625 46.785156 37.660156 47.101562 38.246094 47.101562 C 38.910156 47.101562 39.488281 46.703125 39.757812 46.125 C 40.050781 46.558594 40.546875 46.839844 41.113281 46.839844 C 41.730469 46.839844 42.273438 46.488281 42.554688 45.976562 C 42.847656 46.441406 43.355469 46.75 43.945312 46.75 C 44.53125 46.75 45.039062 46.441406 45.332031 45.976562 C 45.613281 46.488281 46.15625 46.839844 46.773438 46.839844 C 47.339844 46.839844 47.835938 46.558594 48.128906 46.125 C 48.390625 46.703125 48.964844 47.101562 49.628906 47.101562 C 50.214844 47.101562 50.734375 46.796875 51.027344 46.328125 C 51.085938 47.191406 51.808594 47.875 52.675781 47.875 C 53.21875 47.875 53.691406 47.613281 53.996094 47.203125 L 53.996094 47.214844 C 53.996094 48.136719 54.742188 48.886719 55.65625 48.886719 C 56.566406 48.886719 57.3125 48.136719 57.3125 47.214844 C 57.3125 46.964844 57.257812 46.726562 57.15625 46.511719 C 57.460938 46.203125 57.652344 45.785156 57.652344 45.316406 C 57.652344 45.113281 57.617188 44.933594 57.550781 44.75 C 57.96875 44.453125 58.238281 43.976562 58.238281 43.421875 C 58.238281 43.136719 58.171875 42.875 58.035156 42.636719 C 58.566406 42.386719 58.925781 41.863281 58.925781 41.238281 C 58.925781 40.851562 58.789062 40.511719 58.566406 40.238281 C 58.632812 40.25 58.6875 40.25 58.757812 40.25 C 59.660156 40.25 60.394531 39.511719 60.394531 38.601562 C 60.394531 38.125 60.191406 37.703125 59.875 37.410156 C 60.007812 37.441406 60.15625 37.464844 60.300781 37.464844 C 61.285156 37.441406 62.039062 36.671875 62.039062 35.726562 Z M 30.597656 31.351562 C 29.695312 31.351562 28.972656 32.089844 28.972656 32.988281 C 28.972656 33.898438 29.707031 34.625 30.597656 34.625 C 31.5 34.625 32.222656 33.886719 32.222656 32.988281 C 32.222656 32.078125 31.488281 31.351562 30.597656 31.351562 Z M 43.964844 30.386719 C 42.929688 30.386719 42.082031 31.238281 42.082031 32.285156 C 42.082031 33.328125 42.929688 34.183594 43.964844 34.183594 C 45.003906 34.183594 45.851562 33.328125 45.851562 32.285156 C 45.863281 31.238281 45.015625 30.386719 43.964844 30.386719 Z M 43.964844 23.828125 C 45.117188 23.828125 46.054688 22.886719 46.054688 21.726562 C 46.054688 20.566406 45.117188 19.625 43.964844 19.625 C 42.816406 19.625 41.878906 20.566406 41.878906 21.726562 C 41.878906 22.886719 42.816406 23.828125 43.964844 23.828125 Z M 46.269531 14.488281 C 46.269531 13.214844 45.242188 12.171875 43.964844 12.171875 C 42.703125 12.171875 41.664062 13.203125 41.664062 14.488281 C 41.664062 15.761719 42.691406 16.808594 43.964844 16.808594 C 45.242188 16.796875 46.269531 15.761719 46.269531 14.488281 Z M 25.40625 30.25 C 24.460938 30.25 23.691406 31.023438 23.691406 31.976562 C 23.691406 32.933594 24.460938 33.703125 25.40625 33.703125 C 26.355469 33.703125 27.121094 32.933594 27.121094 31.976562 C 27.121094 31.035156 26.355469 30.25 25.40625 30.25 Z M 28.703125 26.921875 C 27.753906 26.921875 26.988281 27.691406 26.988281 28.648438 C 26.988281 29.601562 27.753906 30.375 28.703125 30.375 C 29.648438 30.375 30.417969 29.601562 30.417969 28.648438 C 30.417969 27.691406 29.648438 26.921875 28.703125 26.921875 Z M 36.453125 18.511719 C 37.601562 18.511719 38.539062 17.566406 38.539062 16.410156 C 38.539062 15.25 37.601562 14.308594 36.453125 14.308594 C 35.300781 14.308594 34.363281 15.25 34.363281 16.410156 C 34.363281 17.578125 35.300781 18.511719 36.453125 18.511719 Z M 33.9375 69.921875 L 29.941406 64.296875 C 31.636719 63.691406 33.023438 62.339844 33.023438 59.933594 C 33.023438 56.421875 30.113281 55.171875 27.539062 55.171875 L 19.574219 55.171875 L 19.574219 69.921875 L 22.777344 69.921875 L 22.777344 64.691406 L 26.433594 64.691406 L 30.144531 69.921875 Z M 27.109375 61.726562 C 25.847656 61.726562 22.765625 61.726562 22.765625 61.726562 L 22.765625 58.125 C 22.765625 58.125 25.847656 58.125 27.109375 58.125 C 28.375 58.125 29.625 58.421875 29.625 59.921875 C 29.625 61.433594 28.375 61.726562 27.109375 61.726562 Z M 17.429688 21.625 C 16.335938 21.625 15.445312 22.523438 15.445312 23.625 C 15.445312 24.726562 16.335938 25.625 17.429688 25.625 C 18.523438 25.625 19.417969 24.726562 19.417969 23.625 C 19.417969 22.523438 18.523438 21.625 17.429688 21.625 Z M 8.675781 57.910156 C 11.53125 57.910156 12.953125 59.566406 13.425781 60.738281 L 16.292969 59.023438 C 15.140625 56.796875 12.566406 54.875 8.675781 54.875 C 3.925781 54.875 0.328125 58.261719 0.328125 62.546875 C 0.328125 66.828125 3.925781 70.214844 8.675781 70.214844 C 12.578125 70.214844 15.152344 68.308594 16.292969 66.066406 L 13.425781 64.351562 C 12.953125 65.523438 11.53125 67.183594 8.675781 67.183594 C 6.023438 67.183594 3.8125 65.363281 3.8125 62.535156 C 3.8125 59.714844 6.023438 57.910156 8.675781 57.910156 Z M 67.261719 64.035156 L 64.949219 55.375 L 61.667969 55.375 L 59.320312 64.148438 L 57.15625 55.171875 L 53.816406 55.171875 L 57.550781 69.921875 L 60.652344 69.921875 L 63.269531 60.136719 L 65.886719 69.921875 L 68.976562 69.921875 L 72.710938 55.171875 L 69.382812 55.171875 Z M 84.445312 55.171875 L 84.445312 63.839844 L 78.273438 55.171875 L 75.148438 55.171875 L 75.148438 69.921875 L 78.320312 69.921875 L 78.320312 60.875 L 84.773438 69.921875 L 87.628906 69.921875 L 87.628906 55.171875 Z M 22.125 29.511719 C 23.160156 29.511719 24.007812 28.660156 24.007812 27.613281 C 24.007812 26.566406 23.160156 25.714844 22.125 25.714844 C 21.085938 25.714844 20.238281 26.566406 20.238281 27.613281 C 20.238281 28.671875 21.085938 29.511719 22.125 29.511719 Z M 48.367188 34.921875 C 49.3125 34.921875 50.082031 34.148438 50.082031 33.191406 C 50.082031 32.238281 49.3125 31.464844 48.367188 31.464844 C 47.417969 31.464844 46.652344 32.238281 46.652344 33.191406 C 46.652344 34.148438 47.417969 34.921875 48.367188 34.921875 Z M 43.964844 8.089844 C 45.355469 8.089844 46.472656 6.953125 46.472656 5.566406 C 46.472656 4.171875 45.355469 3.046875 43.964844 3.046875 C 42.578125 3.046875 41.460938 4.183594 41.460938 5.566406 C 41.460938 6.953125 42.589844 8.089844 43.964844 8.089844 Z M 38.449219 37.25 C 38.449219 38.191406 39.214844 38.964844 40.152344 38.964844 C 41.089844 38.964844 41.855469 38.191406 41.855469 37.25 C 41.855469 36.308594 41.089844 35.535156 40.152344 35.535156 C 39.207031 35.535156 38.449219 36.296875 38.449219 37.25 Z M 47.789062 38.964844 C 48.726562 38.964844 49.496094 38.191406 49.496094 37.25 C 49.496094 36.308594 48.726562 35.535156 47.789062 35.535156 C 46.855469 35.535156 46.085938 36.308594 46.085938 37.25 C 46.085938 38.191406 46.855469 38.964844 47.789062 38.964844 Z M 37.863281 33.191406 C 37.863281 34.148438 38.628906 34.921875 39.578125 34.921875 C 40.523438 34.921875 41.292969 34.148438 41.292969 33.191406 C 41.292969 32.238281 40.523438 31.464844 39.578125 31.464844 C 38.628906 31.464844 37.863281 32.238281 37.863281 33.191406 Z M 49.089844 30.488281 C 50.082031 30.488281 50.894531 29.671875 50.894531 28.671875 C 50.894531 27.671875 50.09375 26.851562 49.089844 26.851562 C 48.09375 26.851562 47.28125 27.671875 47.28125 28.671875 C 47.28125 29.683594 48.085938 30.488281 49.089844 30.488281 Z M 27.007812 15.671875 C 28.214844 15.671875 29.1875 14.683594 29.1875 13.476562 C 29.1875 12.273438 28.207031 11.285156 27.007812 11.285156 C 25.800781 11.285156 24.832031 12.273438 24.832031 13.476562 C 24.832031 14.683594 25.800781 15.671875 27.007812 15.671875 Z M 31.160156 25.703125 C 31.160156 26.703125 31.972656 27.523438 32.964844 27.523438 C 33.957031 27.523438 34.769531 26.714844 34.769531 25.703125 C 34.769531 24.703125 33.957031 23.886719 32.964844 23.886719 C 31.972656 23.886719 31.160156 24.703125 31.160156 25.703125 Z M 28.589844 19.683594 C 28.589844 20.785156 29.480469 21.683594 30.574219 21.683594 C 31.667969 21.683594 32.558594 20.785156 32.558594 19.683594 C 32.558594 18.578125 31.667969 17.683594 30.574219 17.683594 C 29.480469 17.683594 28.589844 18.566406 28.589844 19.683594 Z M 25.800781 25.238281 C 26.839844 25.238281 27.6875 24.386719 27.6875 23.339844 C 27.6875 22.296875 26.839844 21.441406 25.800781 21.441406 C 24.765625 21.441406 23.917969 22.296875 23.917969 23.339844 C 23.917969 24.386719 24.753906 25.238281 25.800781 25.238281 Z M 35.988281 23.328125 C 35.988281 24.386719 36.847656 25.25 37.894531 25.25 C 38.945312 25.25 39.804688 24.386719 39.804688 23.328125 C 39.804688 22.273438 38.945312 21.410156 37.894531 21.410156 C 36.847656 21.410156 35.988281 22.273438 35.988281 23.328125 Z M 37.050781 28.671875 C 37.050781 29.671875 37.851562 30.488281 38.855469 30.488281 C 39.847656 30.488281 40.660156 29.683594 40.660156 28.671875 C 40.660156 27.671875 39.847656 26.851562 38.855469 26.851562 C 37.863281 26.851562 37.050781 27.671875 37.050781 28.671875 Z M 52.347656 62.546875 C 52.347656 58.261719 48.726562 54.875 43.976562 54.875 C 39.226562 54.875 35.605469 58.261719 35.605469 62.546875 C 35.605469 66.828125 39.226562 70.214844 43.976562 70.214844 C 48.726562 70.226562 52.347656 66.828125 52.347656 62.546875 Z M 43.976562 67.191406 C 41.324219 67.191406 39.09375 65.398438 39.09375 62.566406 C 39.09375 59.738281 41.324219 57.910156 43.976562 57.910156 C 46.628906 57.910156 48.863281 59.738281 48.863281 62.566406 C 48.875 65.398438 46.628906 67.191406 43.976562 67.191406 Z M 43.976562 67.191406 "/>
</g>
</svg>
